# Blender v2.76 (sub 0) OBJ File: ''
# www.blender.org
mtllib CarouselUmbrella.mtl
o Circle
v -47.657780 6.399691 20.346769
v -49.102535 4.823912 13.083490
v -47.657780 4.823912 12.941195
v -50.491772 4.823912 13.504911
v -51.772099 4.823912 14.189259
v -52.894314 4.823912 15.110237
v -53.815292 4.823911 16.232452
v -54.499641 4.823911 17.512777
v -54.921059 4.823911 18.902012
v -55.063354 4.823911 20.346767
v -54.921059 4.823911 21.791523
v -54.499641 4.823910 23.180758
v -53.815292 4.823910 24.461084
v -52.894314 4.823910 25.583302
v -51.772099 4.823910 26.504278
v -50.491768 4.823910 27.188627
v -49.102535 4.823910 27.610046
v -47.657780 4.823910 27.752342
v -46.213020 4.823910 27.610046
v -44.823788 4.823910 27.188625
v -43.543461 4.823910 26.504276
v -42.421246 4.823910 25.583298
v -41.500267 4.823910 24.461081
v -40.815922 4.823910 23.180754
v -40.394501 4.823911 21.791517
v -40.252205 4.823911 20.346762
v -40.394505 4.823911 18.902004
v -40.815926 4.823911 17.512770
v -41.500275 4.823911 16.232445
v -42.421257 4.823912 15.110229
v -43.543472 4.823912 14.189253
v -44.823799 4.823912 13.504906
v -46.213036 4.823912 13.083489
v -47.927139 4.912549 20.166788
v -47.957073 4.912549 20.222795
v -47.957073 0.163555 20.222795
v -47.927139 0.163555 20.166788
v -47.340054 4.912549 20.283566
v -47.358490 4.912549 20.222794
v -47.358490 0.163555 20.222794
v -47.340054 0.163555 20.283566
v -47.657784 4.981480 20.346766
v -47.657784 4.981480 20.346766
v -47.657784 0.232486 20.346766
v -47.657784 0.232486 20.346766
v -47.533810 4.912549 20.646059
v -47.477802 4.912549 20.616121
v -47.477802 0.163555 20.616121
v -47.533810 0.163555 20.646059
v -47.927139 4.912549 20.526743
v -47.886852 4.912549 20.575834
v -47.886852 0.163555 20.575834
v -47.927139 0.163555 20.526743
v -47.594582 4.912549 20.029037
v -47.657784 4.912549 20.022814
v -47.657784 0.163555 20.022814
v -47.594582 0.163555 20.029037
v -47.886852 4.912549 20.117697
v -47.886852 0.163555 20.117697
v -47.333828 4.912549 20.346766
v -47.333828 0.163555 20.346766
v -47.594582 4.912549 20.664494
v -47.594582 0.163555 20.664494
v -47.957073 4.912549 20.470737
v -47.957073 0.163555 20.470737
v -47.533810 4.912549 20.047472
v -47.533810 0.163555 20.047472
v -47.837761 4.912549 20.077410
v -47.837761 0.163555 20.077410
v -47.340054 4.912549 20.409966
v -47.340054 0.163555 20.409966
v -47.657784 4.912549 20.670719
v -47.657784 0.163555 20.670719
v -47.975510 4.912549 20.409966
v -47.975510 0.163555 20.409966
v -47.477802 4.912549 20.077410
v -47.477802 0.163555 20.077410
v -47.781754 4.912549 20.047474
v -47.781754 0.163555 20.047474
v -47.358490 4.912549 20.470737
v -47.358490 0.163555 20.470737
v -47.720982 4.912549 20.664494
v -47.720982 0.163555 20.664494
v -47.981735 4.912549 20.346766
v -47.981735 0.163555 20.346766
v -47.428715 4.912549 20.117697
v -47.428715 0.163555 20.117697
v -47.720982 4.912549 20.029037
v -47.720982 0.163555 20.029037
v -47.388424 4.912549 20.526743
v -47.388424 0.163555 20.526743
v -47.781754 4.912549 20.646059
v -47.781754 0.163555 20.646059
v -47.975510 4.912549 20.283566
v -47.975510 0.163555 20.283566
v -47.388428 4.912549 20.166788
v -47.388428 0.163555 20.166788
v -47.428715 4.912549 20.575834
v -47.428715 0.163555 20.575834
v -47.837761 4.912549 20.616121
v -47.837761 0.163555 20.616121
v -47.657780 6.399691 20.346769
v -54.748470 2.516520 20.194036
v -54.893940 2.516520 20.194036
v -54.603001 2.516520 20.194036
v -40.601700 2.516519 21.843983
v -40.456230 2.516519 21.843983
v -40.747169 2.516519 21.843983
v -54.748470 4.828454 20.194036
v -54.603001 4.828454 20.194036
v -40.456230 4.819123 21.843983
v -40.601700 4.819123 21.843983
v -40.747169 4.819123 21.843983
v -54.893940 4.835896 20.194036
v -54.748470 4.835896 20.194036
v -47.768902 2.516519 26.935940
v -47.768902 2.516518 27.081409
v -47.768902 2.516519 26.790470
v -47.768902 4.828454 26.935940
v -47.768902 4.828454 26.790470
v -47.768902 4.835895 27.081409
v -47.768902 4.835895 26.935940
v -47.375397 2.516521 13.465993
v -47.375397 2.516521 13.320522
v -47.375397 2.516521 13.611464
v -47.375397 4.828455 13.465994
v -47.375397 4.828455 13.611465
v -47.375397 4.835896 13.320523
v -47.375397 4.835896 13.465994
vn 0.020500 -0.977900 0.208100
vn 0.060700 -0.977900 0.200100
vn 0.098600 -0.977900 0.184400
vn 0.132600 -0.977900 0.161600
vn 0.161600 -0.977900 0.132600
vn 0.184400 -0.977900 0.098600
vn 0.200100 -0.977900 0.060700
vn 0.208100 -0.977900 0.020500
vn 0.208100 -0.977900 -0.020500
vn 0.200100 -0.977900 -0.060700
vn 0.184400 -0.977900 -0.098600
vn 0.161600 -0.977900 -0.132600
vn 0.132600 -0.977900 -0.161600
vn 0.098600 -0.977900 -0.184400
vn 0.060700 -0.977900 -0.200100
vn 0.020500 -0.977900 -0.208100
vn -0.020500 -0.977900 -0.208100
vn -0.060700 -0.977900 -0.200100
vn -0.098600 -0.977900 -0.184400
vn -0.132600 -0.977900 -0.161600
vn -0.161600 -0.977900 -0.132600
vn -0.184400 -0.977900 -0.098600
vn -0.200100 -0.977900 -0.060700
vn -0.208100 -0.977900 -0.020500
vn -0.208100 -0.977900 0.020500
vn -0.200100 -0.977900 0.060700
vn -0.184400 -0.977900 0.098600
vn -0.161600 -0.977900 0.132600
vn -0.132600 -0.977900 0.161600
vn -0.098600 -0.977900 0.184400
vn -0.060700 -0.977900 0.200100
vn -0.020500 -0.977900 0.208100
vn 0.881900 0.000000 0.471400
vn -0.956900 0.000000 0.290300
vn 0.000000 0.000000 1.000000
vn -0.471400 0.000000 -0.881900
vn 0.773000 0.000000 -0.634400
vn -0.098000 0.000000 0.995200
vn 0.773000 0.000000 0.634400
vn -0.995200 0.000000 0.098000
vn -0.290300 0.000000 -0.956900
vn 0.881900 0.000000 -0.471400
vn -0.290300 0.000000 0.956900
vn 0.634400 0.000000 0.773000
vn -0.995200 0.000000 -0.098000
vn -0.098000 0.000000 -0.995200
vn 0.956900 0.000000 -0.290300
vn -0.471400 0.000000 0.881900
vn 0.471400 0.000000 0.881900
vn -0.956900 0.000000 -0.290300
vn 0.098000 0.000000 -0.995200
vn 0.995200 0.000000 -0.098000
vn -0.634400 0.000000 0.773000
vn 0.290300 0.000000 0.956900
vn -0.881900 0.000000 -0.471400
vn 0.290300 0.000000 -0.956900
vn 0.995200 0.000000 0.098000
vn -0.773000 0.000000 0.634400
vn -0.773000 0.000000 -0.634400
vn 0.471400 0.000000 -0.881900
vn 0.098000 0.000000 0.995200
vn 0.956900 0.000000 0.290300
vn -0.881900 0.000000 0.471400
vn -0.634400 0.000000 -0.773000
vn 0.005900 0.999900 0.011100
vn 0.012000 0.999900 -0.003700
vn -0.011100 0.999900 -0.005900
vn -0.008000 0.999900 0.009700
vn 0.008000 0.999900 0.009700
vn 0.011100 0.999900 -0.005900
vn -0.012000 0.999900 -0.003700
vn -0.001200 0.999900 -0.012500
vn -0.005900 0.999900 0.011100
vn 0.009700 0.999900 0.008000
vn 0.009700 0.999900 -0.008000
vn -0.012500 0.999900 -0.001200
vn -0.003700 0.999900 0.012000
vn 0.011100 0.999900 0.005900
vn -0.003700 0.999900 -0.012000
vn 0.008000 0.999900 -0.009700
vn -0.012500 0.999900 0.001200
vn -0.001200 0.999900 0.012500
vn 0.012000 0.999900 0.003700
vn -0.005900 0.999900 -0.011100
vn 0.005900 0.999900 -0.011100
vn -0.012000 0.999900 0.003700
vn 0.001200 0.999900 0.012500
vn 0.012500 0.999900 0.001200
vn -0.008000 0.999900 -0.009700
vn 0.003700 0.999900 -0.012000
vn -0.011100 0.999900 0.005900
vn 0.003700 0.999900 0.012000
vn 0.012500 0.999900 -0.001200
vn -0.009700 0.999900 -0.008000
vn 0.001200 0.999900 -0.012500
vn -0.009700 0.999900 0.008000
vn -0.020500 0.977900 -0.208100
vn -0.060700 0.977900 -0.200100
vn -0.098600 0.977900 -0.184400
vn -0.132700 0.977900 -0.161600
vn -0.161600 0.977900 -0.132600
vn -0.184400 0.977900 -0.098600
vn -0.200100 0.977900 -0.060700
vn -0.208100 0.977900 -0.020500
vn -0.208100 0.977900 0.020500
vn -0.200100 0.977900 0.060700
vn -0.184400 0.977900 0.098600
vn -0.161600 0.977900 0.132600
vn -0.132700 0.977900 0.161600
vn -0.098600 0.977900 0.184400
vn -0.060700 0.977900 0.200100
vn -0.020500 0.977900 0.208100
vn 0.020500 0.977900 0.208100
vn 0.060700 0.977900 0.200100
vn 0.098600 0.977900 0.184400
vn 0.132700 0.977900 0.161600
vn 0.161600 0.977900 0.132600
vn 0.184400 0.977900 0.098600
vn 0.200100 0.977900 0.060700
vn 0.208100 0.977900 0.020500
vn 0.208100 0.977900 -0.020500
vn 0.200100 0.977900 -0.060700
vn 0.184400 0.977900 -0.098600
vn 0.161600 0.977900 -0.132600
vn 0.132700 0.977900 -0.161600
vn 0.098600 0.977900 -0.184400
vn 0.060700 0.977900 -0.200100
vn 0.020500 0.977900 -0.208100
vn 0.634400 0.000000 -0.773000
vn 0.000000 0.000000 -1.000000
vn -1.000000 0.000000 0.000000
vn 1.000000 0.000000 0.000000
usemtl None
s 1
f 1//1 2//1 3//1
f 1//2 4//2 2//2
f 1//3 5//3 4//3
f 1//4 6//4 5//4
f 1//5 7//5 6//5
f 1//6 8//6 7//6
f 1//7 9//7 8//7
f 1//8 10//8 9//8
f 1//9 11//9 10//9
f 1//10 12//10 11//10
f 1//11 13//11 12//11
f 1//12 14//12 13//12
f 1//13 15//13 14//13
f 1//14 16//14 15//14
f 1//15 17//15 16//15
f 1//16 18//16 17//16
f 1//17 19//17 18//17
f 1//18 20//18 19//18
f 1//19 21//19 20//19
f 1//20 22//20 21//20
f 1//21 23//21 22//21
f 1//22 24//22 23//22
f 1//23 25//23 24//23
f 1//24 26//24 25//24
f 1//25 27//25 26//25
f 1//26 28//26 27//26
f 1//27 29//27 28//27
f 1//28 30//28 29//28
f 1//29 31//29 30//29
f 1//30 32//30 31//30
f 1//31 33//31 32//31
f 1//32 3//32 33//32
f 34//33 35//33 36//33 37//33
f 38//34 39//34 40//34 41//34
f 42//35 43//35 44//35 45//35
f 46//36 47//36 48//36 49//36
f 50//37 51//37 52//37 53//37
f 54//38 55//38 56//38 57//38
f 58//39 34//39 37//39 59//39
f 60//40 38//40 41//40 61//40
f 62//41 46//41 49//41 63//41
f 64//42 50//42 53//42 65//42
f 66//43 54//43 57//43 67//43
f 68//44 58//44 59//44 69//44
f 70//45 60//45 61//45 71//45
f 72//46 62//46 63//46 73//46
f 74//47 64//47 65//47 75//47
f 76//48 66//48 67//48 77//48
f 78//49 68//49 69//49 79//49
f 80//50 70//50 71//50 81//50
f 82//51 72//51 73//51 83//51
f 84//52 74//52 75//52 85//52
f 86//53 76//53 77//53 87//53
f 88//54 78//54 79//54 89//54
f 90//55 80//55 81//55 91//55
f 92//56 82//56 83//56 93//56
f 94//57 84//57 85//57 95//57
f 96//58 86//58 87//58 97//58
f 98//59 90//59 91//59 99//59
f 100//60 92//60 93//60 101//60
f 55//61 88//61 89//61 56//61
f 35//62 94//62 95//62 36//62
f 39//63 96//63 97//63 40//63
f 47//64 98//64 99//64 48//64
f 20//65 21//65 47//65 46//65
f 1//35 102//35 43//35 42//35
f 27//66 28//66 39//66 38//66
f 7//67 8//67 35//67 34//67
f 14//68 15//68 100//68 51//68
f 21//69 22//69 98//69 47//69
f 28//70 29//70 96//70 39//70
f 8//71 9//71 94//71 35//71
f 3//72 2//72 88//72 55//72
f 15//73 16//73 92//73 100//73
f 22//74 23//74 90//74 98//74
f 29//75 30//75 86//75 96//75
f 9//76 10//76 84//76 94//76
f 16//77 17//77 82//77 92//77
f 23//78 24//78 80//78 90//78
f 2//79 4//79 78//79 88//79
f 30//80 31//80 76//80 86//80
f 10//81 11//81 74//81 84//81
f 17//82 18//82 72//82 82//82
f 24//83 25//83 70//83 80//83
f 4//84 5//84 68//84 78//84
f 31//85 32//85 66//85 76//85
f 11//86 12//86 64//86 74//86
f 18//87 19//87 62//87 72//87
f 25//88 26//88 60//88 70//88
f 5//89 6//89 58//89 68//89
f 32//90 33//90 54//90 66//90
f 12//91 13//91 50//91 64//91
f 19//92 20//92 46//92 62//92
f 26//93 27//93 38//93 60//93
f 6//94 7//94 34//94 58//94
f 33//95 3//95 55//95 54//95
f 13//96 14//96 51//96 50//96
f 45//97 56//97 89//97
f 45//98 89//98 79//98
f 45//99 79//99 69//99
f 45//100 69//100 59//100
f 45//101 59//101 37//101
f 45//102 37//102 36//102
f 45//103 36//103 95//103
f 45//104 95//104 85//104
f 45//105 85//105 75//105
f 45//106 75//106 65//106
f 45//107 65//107 53//107
f 45//108 53//108 52//108
f 45//109 52//109 101//109
f 45//110 101//110 93//110
f 45//111 93//111 83//111
f 45//112 83//112 73//112
f 45//113 73//113 63//113
f 45//114 63//114 49//114
f 45//115 49//115 48//115
f 45//116 48//116 99//116
f 45//117 99//117 91//117
f 45//118 91//118 81//118
f 45//119 81//119 71//119
f 45//120 71//120 61//120
f 45//121 61//121 41//121
f 45//122 41//122 40//122
f 45//123 40//123 97//123
f 45//124 97//124 87//124
f 45//125 87//125 77//125
f 45//126 77//126 67//126
f 45//127 67//127 57//127
f 45//128 57//128 56//128
f 51//129 100//129 101//129 52//129
f 105//130 103//130 109//130 110//130
f 106//35 107//35 111//35 112//35
f 108//35 106//35 112//35 113//35
f 103//130 104//130 114//130 115//130
f 118//131 116//131 119//131 120//131
f 116//131 117//131 121//131 122//131
f 125//132 123//132 126//132 127//132
f 123//132 124//132 128//132 129//132
