# Blender v2.76 (sub 0) OBJ File: ''
# www.blender.org
mtllib Shops.mtl
o Plane_Plane.000
v -45.609245 0.184556 -26.518270
v -45.609245 0.184557 -32.420479
v 1.573442 0.184557 -32.420479
v 1.573442 0.184556 -26.518270
v -45.609245 1.816042 -26.518270
v 1.573442 1.816042 -26.518270
v 1.573442 1.816043 -32.420479
v -45.609245 1.816043 -32.420479
v 1.573442 4.156190 -32.420479
v 1.573442 4.156189 -26.518270
v -45.609245 3.708907 -26.518270
v -45.609245 3.708908 -32.420479
v -45.609245 0.184538 83.000206
v -45.609245 0.184539 77.097992
v 1.573442 0.184539 77.097992
v 1.573442 0.184538 83.000206
v -45.609245 1.816024 83.000206
v 1.573442 1.816024 83.000206
v 1.573442 1.816025 77.097992
v -45.609245 1.816025 77.097992
v 1.573442 4.156172 77.097992
v 1.573442 4.156171 83.000206
v -45.609245 3.708889 83.000206
v -45.609245 3.708890 77.097992
vn 0.000000 -1.000000 -0.000000
vn 0.000000 1.000000 0.000000
vn 0.000000 0.000000 -1.000000
vn 0.000000 0.000000 1.000000
vn 1.000000 0.000000 0.000000
vn -1.000000 0.000000 0.000000
vn -0.009500 1.000000 0.000000
usemtl None.009
s 1
f 1//1 2//1 3//1 4//1
f 5//2 6//2 7//2 8//2
f 3//3 2//3 8//3 7//3
f 1//4 4//4 6//4 5//4
f 4//5 3//5 7//5 6//5
f 2//6 1//6 5//6 8//6
f 6//5 7//5 9//5 10//5
f 8//6 5//6 11//6 12//6
f 10//7 9//7 12//7 11//7
f 13//1 14//1 15//1 16//1
f 17//2 18//2 19//2 20//2
f 15//3 14//3 20//3 19//3
f 13//4 16//4 18//4 17//4
f 16//5 15//5 19//5 18//5
f 14//6 13//6 17//6 20//6
f 18//5 19//5 21//5 22//5
f 20//6 17//6 23//6 24//6
f 22//7 21//7 24//7 23//7
